<?xml version="1.0" encoding="UTF-8" standalone="no"?>
<!-- Created with Inkscape (http://www.inkscape.org/) -->

<svg
   xmlns:dc="http://purl.org/dc/elements/1.1/"
   xmlns:cc="http://creativecommons.org/ns#"
   xmlns:rdf="http://www.w3.org/1999/02/22-rdf-syntax-ns#"
   xmlns:svg="http://www.w3.org/2000/svg"
   xmlns="http://www.w3.org/2000/svg"
   xmlns:xlink="http://www.w3.org/1999/xlink"
   xmlns:sodipodi="http://sodipodi.sourceforge.net/DTD/sodipodi-0.dtd"
   xmlns:inkscape="http://www.inkscape.org/namespaces/inkscape"
   width="25.523579mm"
   height="131.4689mm"
   viewBox="0 0 90.437877 465.83469"
   id="svg2"
   version="1.1"
   inkscape:version="0.91 r13725"
   sodipodi:docname="fork.svg">
  <defs
     id="defs4">
    <linearGradient
       inkscape:collect="always"
       id="linearGradient5309">
      <stop
         style="stop-color:#2f3d51;stop-opacity:1"
         offset="0"
         id="stop5311" />
      <stop
         id="stop5317"
         offset="0.44545153"
         style="stop-color:#39414d;stop-opacity:0.53623188" />
      <stop
         style="stop-color:#1c2026;stop-opacity:0.2173913"
         offset="0.64506572"
         id="stop5319" />
      <stop
         style="stop-color:#000000;stop-opacity:0;"
         offset="1"
         id="stop5313" />
    </linearGradient>
    <linearGradient
       id="linearGradient5271"
       inkscape:collect="always">
      <stop
         id="stop5273"
         offset="0"
         style="stop-color:#eef7fc;stop-opacity:1" />
      <stop
         style="stop-color:#eef7fc;stop-opacity:1"
         offset="0.18031032"
         id="stop5275" />
      <stop
         style="stop-color:#8892a0;stop-opacity:1"
         offset="0.46037698"
         id="stop5277" />
      <stop
         id="stop5281"
         offset="0.85051668"
         style="stop-color:#8892a0;stop-opacity:1" />
      <stop
         id="stop5279"
         offset="1"
         style="stop-color:#8892a0;stop-opacity:0.00966184" />
    </linearGradient>
    <linearGradient
       inkscape:collect="always"
       id="linearGradient5250">
      <stop
         style="stop-color:#eef7fc;stop-opacity:1"
         offset="0"
         id="stop5252" />
      <stop
         id="stop5260"
         offset="0.31374198"
         style="stop-color:#eef7fc;stop-opacity:1" />
      <stop
         id="stop5258"
         offset="0.72747391"
         style="stop-color:#8892a0;stop-opacity:1" />
      <stop
         style="stop-color:#8892a0;stop-opacity:1"
         offset="1"
         id="stop5254" />
    </linearGradient>
    <linearGradient
       id="linearGradient5213"
       inkscape:collect="always">
      <stop
         id="stop5215"
         offset="0"
         style="stop-color:#e9f4fc;stop-opacity:1" />
      <stop
         style="stop-color:#8892a0;stop-opacity:1"
         offset="0.13989055"
         id="stop5217" />
      <stop
         style="stop-color:#8892a0;stop-opacity:1"
         offset="0.52084476"
         id="stop5219" />
      <stop
         id="stop5223"
         offset="0.76042235"
         style="stop-color:#8892a0;stop-opacity:1;" />
      <stop
         id="stop5221"
         offset="1"
         style="stop-color:#edf6fc;stop-opacity:1" />
    </linearGradient>
    <linearGradient
       id="linearGradient5183"
       inkscape:collect="always">
      <stop
         id="stop5185"
         offset="0"
         style="stop-color:#eef7fc;stop-opacity:1" />
      <stop
         style="stop-color:#eef7fc;stop-opacity:1"
         offset="0.06375109"
         id="stop5187" />
      <stop
         id="stop5189"
         offset="0.35197452"
         style="stop-color:#99a3b3;stop-opacity:1" />
      <stop
         style="stop-color:#eef7fc;stop-opacity:1"
         offset="0.50855827"
         id="stop5191" />
      <stop
         style="stop-color:#eef7fc;stop-opacity:1"
         offset="0.72885984"
         id="stop5193" />
      <stop
         id="stop5195"
         offset="1"
         style="stop-color:#8892a0;stop-opacity:1" />
    </linearGradient>
    <linearGradient
       inkscape:collect="always"
       id="linearGradient5137">
      <stop
         style="stop-color:#eef7fc;stop-opacity:1"
         offset="0"
         id="stop5139" />
      <stop
         id="stop5141"
         offset="0.19741282"
         style="stop-color:#eef7fc;stop-opacity:1" />
      <stop
         style="stop-color:#99a3b3;stop-opacity:1"
         offset="0.47025356"
         id="stop5143" />
      <stop
         id="stop5145"
         offset="0.63584745"
         style="stop-color:#eef7fc;stop-opacity:1" />
      <stop
         id="stop5147"
         offset="0.72885984"
         style="stop-color:#eef7fc;stop-opacity:1" />
      <stop
         style="stop-color:#8892a0;stop-opacity:1"
         offset="1"
         id="stop5149" />
    </linearGradient>
    <linearGradient
       inkscape:collect="always"
       id="linearGradient5107">
      <stop
         style="stop-color:#e9f4fc;stop-opacity:1"
         offset="0"
         id="stop5109" />
      <stop
         id="stop5117"
         offset="0.26042238"
         style="stop-color:#8892a0;stop-opacity:1" />
      <stop
         id="stop5115"
         offset="0.52084476"
         style="stop-color:#8892a0;stop-opacity:1" />
      <stop
         style="stop-color:#8892a0;stop-opacity:1"
         offset="1"
         id="stop5119" />
    </linearGradient>
    <linearGradient
       id="linearGradient5086"
       inkscape:collect="always">
      <stop
         id="stop5088"
         offset="0"
         style="stop-color:#eef7fc;stop-opacity:1" />
      <stop
         style="stop-color:#eef7fc;stop-opacity:1"
         offset="0.19741282"
         id="stop5090" />
      <stop
         id="stop5092"
         offset="0.44873935"
         style="stop-color:#99a3b3;stop-opacity:1" />
      <stop
         style="stop-color:#eef7fc;stop-opacity:1"
         offset="0.54145879"
         id="stop5098" />
      <stop
         style="stop-color:#eef7fc;stop-opacity:1"
         offset="0.83177596"
         id="stop5096" />
      <stop
         id="stop5094"
         offset="1"
         style="stop-color:#8892a0;stop-opacity:1" />
    </linearGradient>
    <linearGradient
       id="linearGradient5024"
       inkscape:collect="always">
      <stop
         id="stop5026"
         offset="0"
         style="stop-color:#8892a0;stop-opacity:1" />
      <stop
         style="stop-color:#a0aaba;stop-opacity:1"
         offset="0.22246905"
         id="stop5036" />
      <stop
         style="stop-color:#a0abbb;stop-opacity:1"
         offset="0.26290157"
         id="stop5028" />
      <stop
         id="stop5038"
         offset="0.32174516"
         style="stop-color:#b3bfcf;stop-opacity:1" />
      <stop
         id="stop5030"
         offset="0.50194645"
         style="stop-color:#c7d4e5;stop-opacity:0.9758454" />
      <stop
         style="stop-color:#eef7fc;stop-opacity:1"
         offset="0.67042422"
         id="stop5042" />
      <stop
         style="stop-color:#eef7fc;stop-opacity:1"
         offset="0.75097322"
         id="stop5034" />
      <stop
         id="stop5040"
         offset="0.80503792"
         style="stop-color:#ecf5fb;stop-opacity:1" />
      <stop
         id="stop5032"
         offset="1"
         style="stop-color:#8892a0;stop-opacity:0;" />
    </linearGradient>
    <linearGradient
       inkscape:collect="always"
       id="linearGradient4693">
      <stop
         style="stop-color:#8892a0;stop-opacity:1;"
         offset="0"
         id="stop4695" />
      <stop
         id="stop4983"
         offset="0.30347058"
         style="stop-color:#8892a0;stop-opacity:1" />
      <stop
         style="stop-color:#8892a0;stop-opacity:0.75362319"
         offset="0.34848389"
         id="stop4985" />
      <stop
         style="stop-color:#8892a0;stop-opacity:0;"
         offset="1"
         id="stop4697" />
    </linearGradient>
    <radialGradient
       inkscape:collect="always"
       xlink:href="#linearGradient4693"
       id="radialGradient4701"
       cx="143.63197"
       cy="309.13062"
       fx="143.63197"
       fy="309.13062"
       r="38.35165"
       gradientTransform="matrix(1.2253243,-1.3318159,1.1756926,1.081685,-394.83211,190.43886)"
       gradientUnits="userSpaceOnUse" />
    <linearGradient
       inkscape:collect="always"
       xlink:href="#linearGradient5024"
       id="linearGradient5048"
       x1="133.06075"
       y1="221.99568"
       x2="152.43036"
       y2="280.10452"
       gradientUnits="userSpaceOnUse" />
    <linearGradient
       inkscape:collect="always"
       xlink:href="#linearGradient5086"
       id="linearGradient5076"
       x1="93.709091"
       y1="200.21332"
       x2="94.941132"
       y2="347.16968"
       gradientUnits="userSpaceOnUse" />
    <linearGradient
       inkscape:collect="always"
       xlink:href="#linearGradient5107"
       id="linearGradient5113"
       x1="103.51118"
       y1="206.20683"
       x2="108.72487"
       y2="301.43597"
       gradientUnits="userSpaceOnUse" />
    <linearGradient
       inkscape:collect="always"
       xlink:href="#linearGradient5137"
       id="linearGradient5135"
       x1="118.45914"
       y1="204.73817"
       x2="119.09789"
       y2="302.84943"
       gradientUnits="userSpaceOnUse" />
    <linearGradient
       inkscape:collect="always"
       xlink:href="#linearGradient5107"
       id="linearGradient5165"
       x1="134.48857"
       y1="206.72192"
       x2="135.44243"
       y2="298.93808"
       gradientUnits="userSpaceOnUse" />
    <linearGradient
       inkscape:collect="always"
       xlink:href="#linearGradient5183"
       id="linearGradient5181"
       x1="147.01144"
       y1="207.46117"
       x2="148.32376"
       y2="303.46704"
       gradientUnits="userSpaceOnUse" />
    <linearGradient
       inkscape:collect="always"
       xlink:href="#linearGradient5213"
       id="linearGradient5211"
       x1="158.34898"
       y1="208.75923"
       x2="162.22792"
       y2="341.39893"
       gradientUnits="userSpaceOnUse" />
    <linearGradient
       inkscape:collect="always"
       xlink:href="#linearGradient4693"
       id="linearGradient5237"
       x1="99.514542"
       y1="358.46683"
       x2="118.89416"
       y2="358.46683"
       gradientUnits="userSpaceOnUse" />
    <radialGradient
       inkscape:collect="always"
       xlink:href="#linearGradient5250"
       id="radialGradient5256"
       cx="127.21698"
       cy="478.55295"
       fx="127.21698"
       fy="478.55295"
       r="33.397461"
       gradientTransform="matrix(0.68475627,-0.02170321,0.04391753,1.3856382,19.08749,-276.77685)"
       gradientUnits="userSpaceOnUse" />
    <linearGradient
       inkscape:collect="always"
       xlink:href="#linearGradient5271"
       id="linearGradient5269"
       x1="104.70875"
       y1="398.77502"
       x2="230.78806"
       y2="472.8848"
       gradientUnits="userSpaceOnUse" />
    <radialGradient
       inkscape:collect="always"
       xlink:href="#linearGradient5309"
       id="radialGradient5315"
       cx="139.12836"
       cy="326.96002"
       fx="139.12836"
       fy="326.96002"
       r="38.340851"
       gradientTransform="matrix(1.0920247,-1.1085438,0.60131541,0.59235495,-200.04535,297.30495)"
       gradientUnits="userSpaceOnUse" />
    <radialGradient
       inkscape:collect="always"
       xlink:href="#linearGradient4693"
       id="radialGradient4235"
       gradientUnits="userSpaceOnUse"
       gradientTransform="matrix(1.2253243,-1.3318159,1.1756926,1.081685,-394.83211,190.43886)"
       cx="143.63197"
       cy="309.13062"
       fx="143.63197"
       fy="309.13062"
       r="38.35165" />
    <filter
       inkscape:collect="always"
       style="color-interpolation-filters:sRGB"
       id="filter4301"
       x="-0.056893216"
       width="1.1137864"
       y="-0.010691263"
       height="1.0213825">
      <feGaussianBlur
         inkscape:collect="always"
         stdDeviation="1.9774642"
         id="feGaussianBlur4303" />
    </filter>
  </defs>
  <sodipodi:namedview
     id="base"
     pagecolor="#ffffff"
     bordercolor="#666666"
     borderopacity="1.0"
     inkscape:pageopacity="0.0"
     inkscape:pageshadow="2"
     inkscape:zoom="0.59371374"
     inkscape:cx="-510.09254"
     inkscape:cy="296.40285"
     inkscape:document-units="px"
     inkscape:current-layer="layer14"
     showgrid="false"
     inkscape:window-width="1366"
     inkscape:window-height="745"
     inkscape:window-x="-8"
     inkscape:window-y="-8"
     inkscape:window-maximized="1"
     fit-margin-top="0"
     fit-margin-left="0"
     fit-margin-right="0"
     fit-margin-bottom="0" />
  <metadata
     id="metadata7">
    <rdf:RDF>
      <cc:Work
         rdf:about="">
        <dc:format>image/svg+xml</dc:format>
        <dc:type
           rdf:resource="http://purl.org/dc/dcmitype/StillImage" />
        <dc:title />
      </cc:Work>
    </rdf:RDF>
  </metadata>
  <g
     inkscape:groupmode="layer"
     id="layer14"
     inkscape:label="ナイフ 1"
     transform="translate(-88.234499,-207.66901)"
     style="display:inline">
    <path
       id="path5376-8"
       style="fill:#3d4249;fill-opacity:0.5362319;fill-rule:evenodd;stroke:none;stroke-width:1px;stroke-linecap:butt;stroke-linejoin:miter;stroke-opacity:1;filter:url(#filter4301)"
       d="m 120.61161,229.96415 c -3.64119,-0.63366 -22.999865,54.52965 -26.368483,64.42499 -3.36863,9.89534 23.371533,5.84924 18.346833,4.0152 -10.26791,-3.74784 18.77355,-66.56909 8.02165,-68.44019 z m 27.37627,-1.40561 c -3.64119,-0.63366 -22.99986,54.52965 -26.36848,64.42499 -3.36863,9.89534 23.37153,5.84924 18.34683,4.0152 -10.26791,-3.74784 18.77355,-66.56909 8.02165,-68.44019 z m 21.27942,69.89901 c 1.26324,19.58014 1.62805,47.18827 -8.48761,67.79362 -9.95384,20.27572 -18.10637,296.43915 -18.10637,296.43915 -0.8767,10.35224 -6.71872,9.1912 -11.36912,9.26373 -11.1823,0.17441 -13.05343,-8.84265 -13.05343,-8.84265 -1.7838,-95.99167 7.46651,-191.77155 14.06274,-287.70081 0.4365,-3.92658 -1.65433,-17.05053 -1.77727,-31.04293 -0.12294,-13.9924 10.37583,-28.2788 14.9089,-42.93032 9.13076,-29.51193 25.30424,-74.30755 30.33953,-73.36684 6.16836,1.1524 -7.7806,50.80691 -6.51737,70.38705 z" />
  </g>
  <g
     inkscape:label="レイヤー 1"
     inkscape:groupmode="layer"
     id="layer1"
     style="display:inline"
     transform="translate(-88.234499,-207.66901)">
    <path
       id="path4153-4"
       style="fill:#b0bdce;fill-opacity:1;fill-rule:evenodd;stroke:#dae8fc;stroke-width:1.5;stroke-linecap:butt;stroke-linejoin:miter;stroke-miterlimit:4;stroke-dasharray:none;stroke-opacity:1"
       d="m 115.25912,661.1753 c -0.43435,-83.84606 5.25945,-241.24022 2.71689,-297.04654 -8.35147,-23.94287 -29.749643,-4.63426 -28.970719,-56.73447 1.739497,-20.08138 2.150852,-64.46483 4.363331,-89.97754 2.360749,-11.126 10.695398,-11.15619 12.834208,0 1.42018,12.06132 0.20472,61.52246 0.96058,74.70112 4.02828,9.04436 9.16103,8.52512 13.31916,0.32021 0.0763,-13.51319 0.58703,-63.09823 0.50778,-75.02133 -0.0793,-11.92309 12.77253,-12.03354 12.69328,-0.11051 -0.0793,11.9231 0.43144,61.50813 0.50775,75.02131 4.15812,8.20492 9.29088,8.72417 13.31919,-0.3202 0.75586,-13.17866 -0.45963,-62.63978 0.96056,-74.70111 2.13879,-11.15621 10.47347,-11.126 12.8342,0 2.2125,25.51271 2.62385,69.89616 4.36332,89.97753 0.77895,52.10021 -20.61924,32.79159 -28.9707,56.73449 -2.54259,55.8063 2.71688,213.19933 2.71688,297.04652 0,8.32471 -24.11277,8.39738 -24.15571,0.1104 z"
       inkscape:connector-curvature="0"
       sodipodi:nodetypes="scccccczzccccccss" />
  </g>
  <g
     style="display:inline"
     id="g5241"
     inkscape:groupmode="layer"
     inkscape:label="レイヤー 1 コピー 2"
     transform="translate(-88.234499,-207.66901)">
    <path
       style="fill:url(#linearGradient5269);fill-opacity:1;fill-rule:evenodd;stroke:none;stroke-width:1.5;stroke-linecap:butt;stroke-linejoin:miter;stroke-miterlimit:4;stroke-dasharray:none;stroke-opacity:1"
       d="m 136.2207,383.68945 -17.78515,0 c 0.98238,66.6589 -3.56824,201.72817 -3.17578,277.48633 0.0429,8.28698 24.15429,8.21338 24.15429,-0.11133 0,-75.71314 -4.23339,-210.67285 -3.19336,-277.375 z"
       id="path5265"
       inkscape:connector-curvature="0" />
    <path
       style="fill:url(#radialGradient5256);fill-opacity:1;fill-rule:evenodd;stroke:none;stroke-width:1.5;stroke-linecap:butt;stroke-linejoin:miter;stroke-miterlimit:4;stroke-dasharray:none;stroke-opacity:1"
       d="m 93.398438,338.10742 c 6.55874,13.61136 18.742732,9.29197 24.578122,26.02149 0.24526,5.38314 0.35411,12.44408 0.45899,19.56054 l 17.78515,0 c 0.11174,-7.16597 0.22991,-14.25808 0.47657,-19.67187 5.5299,-15.85376 16.75169,-12.83414 23.49609,-24.04883 -15.64224,-0.41655 -38.35611,-1.05317 -66.794922,-1.86133 z"
       id="path5248"
       inkscape:connector-curvature="0" />
  </g>
  <g
     style="display:inline"
     id="g4674"
     inkscape:groupmode="layer"
     inkscape:label="レイヤー 1 コピー 1"
     transform="translate(-88.234499,-207.66901)">
    <path
       style="fill:url(#radialGradient4235);fill-opacity:1;fill-rule:evenodd;stroke:none;stroke-width:1.5;stroke-linecap:butt;stroke-linejoin:miter;stroke-miterlimit:4;stroke-dasharray:none;stroke-opacity:1"
       d="m 127.33789,208.41992 c -3.19314,0.0276 -6.38731,3.03455 -6.34766,8.9961 0.0793,11.9231 -0.43151,61.50829 -0.50781,75.02148 -4.15813,8.20491 -9.29008,8.72405 -13.31836,-0.32031 -0.75586,-13.17866 0.45925,-62.63985 -0.96094,-74.70117 -2.1388,-11.15619 -10.47323,-11.126 -12.833979,0 -2.212479,25.51271 -2.623785,69.89713 -4.363282,89.97851 -0.249921,16.71662 1.796458,26.03667 4.949219,31.83789 l 63.957032,3.88086 c 4.67553,-5.2694 8.07377,-14.56657 7.75586,-35.83008 -1.73947,-20.08137 -2.15078,-64.46385 -4.36328,-89.97656 -2.36073,-11.126 -10.6952,-11.15621 -12.83399,0 -1.42019,12.06133 -0.20507,61.52251 -0.96093,74.70117 -4.02831,9.04437 -9.16024,8.52524 -13.31836,0.32031 -0.0763,-13.51317 -0.58712,-63.09838 -0.50782,-75.02148 0.0396,-5.96151 -3.15256,-8.91434 -6.3457,-8.88672 z"
       id="path4676"
       inkscape:connector-curvature="0" />
    <path
       id="path5005"
       style="fill:url(#linearGradient5048);fill-opacity:1;fill-rule:evenodd;stroke:none;stroke-width:1.5;stroke-linecap:butt;stroke-linejoin:miter;stroke-miterlimit:4;stroke-dasharray:none;stroke-opacity:1"
       d="m 127.33789,208.41992 c -3.19314,0.0276 -6.38731,3.03455 -6.34766,8.9961 0.0793,11.9231 -0.43151,61.50829 -0.50781,75.02148 -0.32501,0.64132 -0.68556,0.91833 -1.02148,1.46484 5.26044,-0.17199 11.06323,-0.35832 15.47656,-0.50586 -0.2431,-0.41761 -0.50894,-0.6004 -0.74609,-1.06836 -0.0763,-13.51317 -0.58712,-63.09838 -0.50782,-75.02148 0.0396,-5.96151 -3.15256,-8.91434 -6.3457,-8.88672 z m 19.64453,84.58399 c 4.38179,-0.14943 14.37894,-0.46052 17.82031,-0.58203 -1.07627,-22.47064 -1.71948,-54.60629 -3.49804,-75.11524 -2.36073,-11.126 -10.6952,-11.15621 -12.83399,0 -1.42019,12.06133 -0.20507,61.52251 -0.96093,74.70117 -0.17023,0.38219 -0.35334,0.64792 -0.52735,0.9961 z m -57.246092,1.86718 c 8.511594,-0.26881 11.466422,-0.37664 18.564452,-0.60547 -0.38385,-0.66678 -0.76962,-1.32422 -1.13672,-2.14843 -0.75586,-13.17866 0.45925,-62.63985 -0.96094,-74.70117 -2.1388,-11.15619 -10.47323,-11.126 -12.833979,0 -1.846811,21.29608 -2.475932,54.97142 -3.632813,77.45507 z"
       inkscape:connector-curvature="0" />
    <path
       inkscape:connector-curvature="0"
       id="path5286"
       d="m 120.48242,292.4375 c -4.15813,8.20491 -9.29008,8.72405 -13.31836,-0.32031 -0.2002,-102.89009 -13.239116,-67.8246 -18.158201,15.27734 -0.249921,16.71662 1.796458,26.03667 4.949219,31.83789 l 63.957032,3.88086 c 4.67553,-5.2694 8.07377,-14.56657 7.75586,-35.83008 -1.17757,-82.28511 -15.61245,-119.4975 -18.1582,-15.27539 -4.02831,9.04437 -9.16024,8.52524 -13.31836,0.32031 4.00294,-86.46493 -15.54,-88.7595 -13.70899,0.10938 z"
       style="display:inline;fill:url(#radialGradient4701);fill-opacity:1;fill-rule:evenodd;stroke:#848e9d;stroke-width:1.5;stroke-linecap:butt;stroke-linejoin:miter;stroke-miterlimit:4;stroke-dasharray:none;stroke-opacity:0.00966187"
       sodipodi:nodetypes="ccccccccc" />
    <path
       style="display:inline;fill:#8892a0;fill-opacity:1;fill-rule:evenodd;stroke:none;stroke-width:1px;stroke-linecap:butt;stroke-linejoin:miter;stroke-opacity:1"
       d="m 165.48379,320.52803 c 0.36845,3.36863 -0.37169,7.66684 -4.42132,16.00098 -2.72467,5.60737 -6.4414,9.64495 -14.73774,13.68505 -10.44269,5.08531 -25.09535,5.15407 -39.16029,-0.63162 -12.01409,-4.94206 -20.958533,-23.58733 -17.053673,-34.10735 l -0.421078,-9.26372 c 0,0 9.120339,48.14658 54.108561,30.1071 9.80043,-5.48281 12.8429,-33.26519 12.8429,-33.26519 l 7.78995,-10.10588 z"
       id="path4173"
       inkscape:connector-curvature="0"
       sodipodi:nodetypes="cssscccccc" />
    <path
       style="display:inline;fill:url(#radialGradient5315);fill-opacity:1;fill-rule:evenodd;stroke:none;stroke-width:1.5;stroke-linecap:butt;stroke-linejoin:miter;stroke-miterlimit:4;stroke-dasharray:none;stroke-opacity:1"
       d="m 120.48242,292.4375 c -4.15813,8.20491 -9.29008,8.72405 -13.31836,-0.32031 -0.2002,-102.89009 -13.239116,-67.8246 -18.158201,15.27734 -0.352532,28.18825 20.279591,42.45133 39.697761,42.37017 27.60794,-1.02941 35.14951,-15.6411 37.2621,-37.41979 -0.89014,-81.83523 -15.79312,-129.35241 -18.45595,-20.3371 -4.02831,9.04437 -9.16024,8.52524 -13.31836,0.32031 -3.79381,-95.05408 -13.12955,-93.50759 -13.70899,0.10938 z"
       id="path5302"
       inkscape:connector-curvature="0"
       sodipodi:nodetypes="cccccccc" />
  </g>
  <g
     style="display:inline"
     id="g4669"
     inkscape:groupmode="layer"
     inkscape:label="レイヤー 1 コピー"
     transform="translate(-88.234499,-207.66901)">
    <path
       sodipodi:nodetypes="scccccczzccccccss"
       inkscape:connector-curvature="0"
       d="m 115.25912,661.1753 c -0.43435,-83.84606 5.25945,-241.24022 2.71689,-297.04654 -8.35147,-23.94287 -29.749643,-4.63426 -28.970719,-56.73447 1.739497,-20.08138 2.150852,-64.46483 4.363331,-89.97754 2.360749,-11.126 10.695398,-11.15619 12.834208,0 1.42018,12.06132 0.20472,61.52246 0.96058,74.70112 4.02828,9.04436 9.16103,8.52512 13.31916,0.32021 0.0763,-13.51319 0.58703,-63.09823 0.50778,-75.02133 -0.0793,-11.92309 12.77253,-12.03354 12.69328,-0.11051 -0.0793,11.9231 0.43144,61.50813 0.50775,75.02131 4.15812,8.20492 9.29088,8.72417 13.31919,-0.3202 0.75586,-13.17866 -0.45963,-62.63978 0.96056,-74.70111 2.13879,-11.15621 10.47347,-11.126 12.8342,0 2.2125,25.51271 2.62385,69.89616 4.36332,89.97753 0.77895,52.10021 -20.61924,32.79159 -28.9707,56.73449 -2.54259,55.8063 2.71688,213.19933 2.71688,297.04652 0,8.32471 -24.11277,8.39738 -24.15571,0.1104 z"
       style="fill:none;fill-opacity:1;fill-rule:evenodd;stroke:#dae8fc;stroke-width:1.5;stroke-linecap:butt;stroke-linejoin:miter;stroke-miterlimit:4;stroke-dasharray:none;stroke-opacity:1"
       id="path4671" />
    <path
       style="display:inline;fill:none;fill-opacity:1;fill-rule:evenodd;stroke:url(#linearGradient5113);stroke-width:1.5;stroke-linecap:butt;stroke-linejoin:miter;stroke-miterlimit:4;stroke-dasharray:none;stroke-opacity:1"
       d="m 112.40234,298.43555 c -1.83323,-0.67569 -3.62553,-2.69739 -5.23828,-6.31836 -0.75586,-13.17866 0.45926,-62.63985 -0.96094,-74.70117 -1.18179,-6.16443 -4.24809,-8.78588 -7.160151,-8.13477"
       id="path5103"
       inkscape:connector-curvature="0"
       sodipodi:nodetypes="cccc" />
    <path
       style="display:inline;fill:#eef7fc;fill-opacity:0;fill-rule:evenodd;stroke:url(#linearGradient5076);stroke-width:1.5;stroke-linecap:butt;stroke-linejoin:miter;stroke-miterlimit:4;stroke-dasharray:none;stroke-opacity:1"
       d="m 99.042969,209.28125 c -2.358097,0.52725 -4.617526,3.15651 -5.673828,8.13477 -2.212479,25.51271 -2.623785,69.89713 -4.363282,89.97851 -0.387312,25.90631 4.710296,34.14838 10.958985,38.83985"
       id="path5066"
       inkscape:connector-curvature="0"
       sodipodi:nodetypes="cccc" />
    <path
       style="display:inline;fill:none;fill-opacity:1;fill-rule:evenodd;stroke:url(#linearGradient5135);stroke-width:1.5;stroke-linecap:butt;stroke-linejoin:miter;stroke-miterlimit:4;stroke-dasharray:none;stroke-opacity:1"
       d="m 127.04883,208.49023 c -3.09185,0.20466 -6.09702,3.1479 -6.0586,8.92579 0.0793,11.9231 -0.43151,61.50829 -0.50781,75.02148 -2.49339,4.92002 -5.3343,7.01007 -8.08008,5.99805"
       id="path5125"
       inkscape:connector-curvature="0"
       sodipodi:nodetypes="cscc" />
    <path
       style="display:inline;fill:none;fill-opacity:1;fill-rule:evenodd;stroke:url(#linearGradient5165);stroke-width:1.5;stroke-linecap:butt;stroke-linejoin:miter;stroke-miterlimit:4;stroke-dasharray:none;stroke-opacity:1"
       d="m 140.38477,298.51172 c -2.13584,-0.31841 -4.26878,-2.38595 -6.19336,-6.1836 -0.0763,-13.51317 -0.58712,-63.09838 -0.50782,-75.02148 0.0396,-5.96151 -3.15256,-8.91434 -6.3457,-8.88672 -0.0984,8.5e-4 -0.19078,0.0638 -0.28906,0.0703"
       id="path5056"
       inkscape:connector-curvature="0"
       sodipodi:nodetypes="ccscc" />
    <path
       style="display:inline;fill:none;fill-opacity:1;fill-rule:evenodd;stroke:url(#linearGradient5181);stroke-width:1.5;stroke-linecap:butt;stroke-linejoin:miter;stroke-miterlimit:4;stroke-dasharray:none;stroke-opacity:1"
       d="m 154.59961,209.00586 c -2.57422,0.13861 -5.08756,2.86899 -6.12891,8.30078 -1.42019,12.06133 -0.20507,61.52251 -0.96093,74.70117 -2.16381,4.85819 -4.64631,6.87343 -7.125,6.50391"
       id="path5171"
       inkscape:connector-curvature="0"
       sodipodi:nodetypes="cccc" />
    <path
       style="display:inline;fill:none;fill-opacity:1;fill-rule:evenodd;stroke:url(#linearGradient5211);stroke-width:1.5;stroke-linecap:butt;stroke-linejoin:miter;stroke-miterlimit:4;stroke-dasharray:none;stroke-opacity:1"
       d="m 158.99023,341.87891 c 4.11589,-5.48973 6.97109,-14.97488 6.67774,-34.59571 -1.73947,-20.08137 -2.15078,-64.46385 -4.36328,-89.97656 -1.21133,-5.70892 -3.99219,-8.44686 -6.70508,-8.30078"
       id="path5155"
       inkscape:connector-curvature="0"
       sodipodi:nodetypes="cccc" />
    <path
       style="display:inline;fill:none;fill-opacity:1;fill-rule:evenodd;stroke:#dae8fc;stroke-width:1.5;stroke-linecap:butt;stroke-linejoin:miter;stroke-miterlimit:4;stroke-dasharray:none;stroke-opacity:1"
       d="m 136.54297,370.40234 c 0.065,-1.95306 0.0742,-4.62765 0.1543,-6.38476 5.20631,-14.92606 15.47973,-13.05124 22.29296,-22.13867"
       id="path5229"
       inkscape:connector-curvature="0"
       sodipodi:nodetypes="ccc" />
    <path
       style="display:inline;fill:none;fill-opacity:1;fill-rule:evenodd;stroke:url(#linearGradient5237);stroke-width:1.5;stroke-linecap:butt;stroke-linejoin:miter;stroke-miterlimit:4;stroke-dasharray:none;stroke-opacity:1"
       d="m 99.964844,346.23438 c 6.318056,4.74353 13.812936,5.85701 18.011716,17.89453 0.0896,1.96674 0.0982,4.93505 0.16797,7.14648"
       id="path5201"
       inkscape:connector-curvature="0"
       sodipodi:nodetypes="ccc" />
  </g>
</svg>
